<svg width="24" height="22" viewBox="0 0 24 22" fill="none" xmlns="http://www.w3.org/2000/svg">
<path d="M0.947289 13.8977C0.424116 13.8977 0 13.4736 0 12.9504C0 12.4272 0.424116 12.0031 0.947289 12.0031H23.0525C23.5757 12.0031 23.9998 12.4272 23.9998 12.9504C23.9998 13.4736 23.5757 13.8977 23.0525 13.8977H0.947289Z" fill="#706FE5"/>
<path d="M17.6399 5.13617L23.3988 15.2959C24.6363 17.4291 23.9019 20.1571 21.7598 21.388C21.4527 21.5645 21.0605 21.4539 20.8908 21.143C17.0252 14.0604 15.3135 10.9275 14.5315 9.51132C16.1973 8.68156 17.3985 7.05817 17.6399 5.13617V5.13617Z" fill="#2E3E5C"/>
<path d="M12.0031 8.84136C9.5616 8.84136 7.5824 6.86215 7.5824 4.42068C7.5824 1.97921 9.5616 0 12.0031 0C14.4446 0 16.4238 1.97921 16.4238 4.42068C16.4238 6.86215 14.4446 8.84136 12.0031 8.84136Z" fill="#706FE5"/>
<path d="M12.0031 5.05224C12.3519 5.05224 12.6346 4.76949 12.6346 4.42071C12.6346 4.07193 12.3519 3.78918 12.0031 3.78918C11.6543 3.78918 11.3716 4.07193 11.3716 4.42071C11.3716 4.76949 11.6543 5.05224 12.0031 5.05224Z" fill="#706FE5"/>
<path d="M9.47615 9.51438C7.87233 12.4333 3.32783 20.7534 3.1142 21.1437C2.94434 21.454 2.55271 21.5643 2.24588 21.3882C0.101032 20.1572 -0.634478 17.4285 0.601539 15.3004L6.36223 5.14093C6.6053 7.06321 7.80848 8.68623 9.47615 9.51438V9.51438Z" fill="#2E3E5C"/>
</svg>
